<?xml version="1.0" encoding="utf-8"?>
<!-- Generator: Adobe Illustrator 17.0.0, SVG Export Plug-In . SVG Version: 6.00 Build 0)  -->
<!DOCTYPE svg PUBLIC "-//W3C//DTD SVG 1.1//EN" "http://www.w3.org/Graphics/SVG/1.1/DTD/svg11.dtd">
<svg version="1.1" xmlns="http://www.w3.org/2000/svg" xmlns:xlink="http://www.w3.org/1999/xlink" x="0px" y="0px" width="24px"
	 height="24px" viewBox="0 0 24 24" enable-background="new 0 0 24 24" xml:space="preserve">
<g id="Слой_6">
	<path fill="#179CDE" d="M0,12C0,5.373,5.373,0,12,0l0,0c6.627,0,12,5.373,12,12l0,0c0,6.627-5.373,12-12,12l0,0
		C5.373,24,0,18.627,0,12L0,12z"/>
</g>
<g id="Слой_4" display="none">
	<path display="inline" fill="#E5CA77" d="M5.973,9.787c0-0.985,0.799-1.784,1.784-1.784h0.671c0.985,0,1.784,0.799,1.784,1.784l0,0
		c0,0.985-0.799,1.784-1.784,1.784H7.757C6.772,11.571,5.973,10.772,5.973,9.787L5.973,9.787z"/>
</g>
<g id="Слой_5">
	<path display="none" fill="#7BC862" d="M13.129,9.293c0-0.956,0.775-1.73,1.73-1.73h0.778c0.956,0,1.73,0.775,1.73,1.73l0,0
		c0,0.956-0.775,1.73-1.73,1.73h-0.778C13.904,11.023,13.129,10.249,13.129,9.293L13.129,9.293z"/>
	<path fill="#C6E1F7" d="M10.059,11.95c-0.97,0-1.752,0.783-1.752,1.752c0,0.765-0.678,1.168-1.168,1.168
		c0.537,0.713,1.455,1.168,2.337,1.168c1.291,0,2.337-1.046,2.337-2.337C11.811,12.733,11.028,11.95,10.059,11.95z M18.068,6.477
		l-0.783-0.783c-0.228-0.228-0.596-0.228-0.824,0l-5.234,5.234l1.606,1.606L18.068,7.3C18.295,7.072,18.295,6.704,18.068,6.477z"/>
</g>
<g id="Слой_3" display="none">
	<path display="inline" fill="#A695E7" d="M5.63,13.384c0-1.03,0.835-1.864,1.864-1.864l0,0c1.03,0,1.864,0.835,1.864,1.864v0.429
		c0,1.03-0.835,1.864-1.864,1.864l0,0c-1.03,0-1.864-0.835-1.864-1.864V13.384z"/>
</g>
<g id="Слой_2" display="none">
	<path display="inline" fill="#E17076" d="M13.297,7.563c0,0.83-0.673,1.502-1.502,1.502h-0.08c-0.83,0-1.502-0.673-1.502-1.502l0,0
		c0-0.83,0.673-1.502,1.502-1.502h0.08C12.624,6.061,13.297,6.733,13.297,7.563L13.297,7.563z"/>
	<path display="inline" fill="#E17076" d="M392.058,249.498c0,0.83-0.673,1.502-1.502,1.502h-0.08c-0.83,0-1.502-0.673-1.502-1.502
		l0,0c0-0.83,0.673-1.502,1.502-1.502h0.08C391.385,247.995,392.058,248.668,392.058,249.498L392.058,249.498z"/>
	<path display="inline" fill="#E17076" d="M392.036,249.501c0,0.83-0.673,1.502-1.502,1.502h-0.08c-0.83,0-1.502-0.673-1.502-1.502
		l0,0c0-0.83,0.673-1.502,1.502-1.502h0.08C391.363,247.998,392.036,248.671,392.036,249.501L392.036,249.501z"/>
	<path display="inline" fill="#E17076" d="M391.267,249.501c0,0.83-0.673,1.502-1.502,1.502h-0.081c-0.83,0-1.502-0.673-1.502-1.502
		l0,0c0-0.83,0.673-1.502,1.502-1.502h0.081C390.594,247.998,391.267,248.671,391.267,249.501L391.267,249.501z"/>
</g>
<g id="Слой_1" display="none">
	<path display="inline" fill="#757575" d="M8.512,5.958c-3.54,1.926-4.85,6.359-2.923,9.899s6.359,4.85,9.899,2.923
		c0.591-0.322,0.809-1.059,0.487-1.65c-0.151-0.278-0.394-0.469-0.669-0.568c-0.265-0.096-0.507-0.287-0.654-0.558
		c-0.322-0.591-0.104-1.328,0.487-1.65l1.261-0.686c1.966-1.07,2.694-3.533,1.624-5.5C16.311,5.021,12.053,4.032,8.512,5.958z
		 M8.082,14.501c-0.591,0.322-1.328,0.104-1.65-0.487c-0.322-0.591-0.104-1.328,0.487-1.65s1.328-0.104,1.65,0.487
		S8.673,14.179,8.082,14.501z M8.669,10.489c-0.591,0.322-1.328,0.104-1.65-0.487C6.697,9.41,6.915,8.673,7.506,8.352
		s1.328-0.104,1.65,0.487C9.478,9.43,9.26,10.167,8.669,10.489z M12.231,8.551c-0.591,0.322-1.328,0.104-1.65-0.487
		c-0.322-0.591-0.104-1.328,0.487-1.65s1.328-0.104,1.65,0.487S12.822,8.23,12.231,8.551z M15.918,10.238
		c-0.591,0.322-1.328,0.104-1.65-0.487s-0.104-1.328,0.487-1.65c0.591-0.322,1.328-0.104,1.65,0.487
		C16.727,9.179,16.509,9.916,15.918,10.238z"/>
	<path display="inline" fill="none" d="M0,0h24v24H0V0z"/>
</g>
</svg>
