<?xml version="1.0" standalone="no"?>
<!DOCTYPE svg PUBLIC "-//W3C//DTD SVG 20010904//EN"
 "http://www.w3.org/TR/2001/REC-SVG-20010904/DTD/svg10.dtd">
<svg version="1.0" xmlns="http://www.w3.org/2000/svg"
 width="512.000000pt" height="512.000000pt" viewBox="0 0 512.000000 512.000000"
 preserveAspectRatio="xMidYMid meet">
<metadata>
Created by potrace 1.13, written by Peter Selinger 2001-2015
</metadata>
<g transform="translate(0.000000,512.000000) scale(0.100000,-0.100000)"
stroke="none">
<path d="M3724 5102 c-31 -11 -144 -83 -285 -182 -129 -91 -504 -355 -834
-587 l-600 -423 -125 6 c-397 20 -784 -142 -1081 -453 -99 -104 -124 -155
-124 -253 0 -140 -20 -115 531 -674 l494 -501 -784 -785 c-537 -538 -789 -798
-802 -825 -10 -23 -20 -71 -22 -111 -4 -62 0 -80 23 -133 31 -69 85 -123 154
-154 67 -31 179 -30 246 2 40 19 210 183 831 803 772 770 782 780 797 757 9
-12 214 -221 456 -464 318 -319 453 -448 488 -465 39 -21 63 -25 128 -25 67 0
88 5 130 27 237 127 384 398 442 813 17 127 25 573 11 670 l-7 50 595 735
c327 404 604 755 617 780 17 36 22 62 22 130 0 76 -3 90 -30 137 -39 67 -961
1059 -1018 1095 -81 50 -165 60 -253 30z"/>
</g>
</svg>
